<?xml version="1.0"?>
<svg xmlns="http://www.w3.org/2000/svg"
width="640" height="860" viewBox="-320 -540 640 860">
<circle r="100" fill="#900"/>
<g stroke="#069">
<path fill="none" stroke-width="84" d="m-173-189a256,256 0 1,0 354,6c-71-71-177-35-199-190"/>
<path stroke-width="22" d="m-181-181 54,54m254,254 54,54m-362,0 54-54m254-254 54-54m75,181h-76m-360,0h-76m256,180v76"/>
<path fill="#069" d="m-78-78-83-22 61-61zm156,0 22-83 61,61zm32,78 75-43v86zm-32,78 22,83 61-61zm-78,32 -43,75h86zm-78-32 -22,83 -61-61zm-32-78 -75-43v86zm87-515c0,0-36,135-80,185s116-62 170-5-90-180-90-180"/>
</g></svg>